<svg width="28" height="28" viewBox="0 0 28 28" fill="none" xmlns="http://www.w3.org/2000/svg">
<g filter="url(#filter0_d)">
<path d="M19.5787 4.42128C19.7785 4.62103 19.8907 4.89196 19.8907 5.17447C19.8907 5.45697 19.7785 5.7279 19.5787 5.92766C19.379 6.12742 19.108 6.23964 18.8255 6.23964C18.543 6.23964 18.2721 6.12742 18.0723 5.92766C18.0248 5.87675 17.9808 5.82273 17.9404 5.76596C17.9011 5.70726 17.8683 5.64448 17.8426 5.57872C17.8163 5.51559 17.7963 5.45003 17.783 5.38298C17.7767 5.31361 17.7767 5.24383 17.783 5.17447C17.7848 4.89258 17.8962 4.62246 18.0936 4.42128C18.1436 4.37274 18.1977 4.3286 18.2553 4.28936C18.3711 4.21159 18.5013 4.15804 18.6383 4.13191C18.8068 4.10123 18.9801 4.1115 19.1438 4.16185C19.3075 4.21221 19.4566 4.30119 19.5787 4.42128ZM18.1149 10C18.1149 10.8138 17.8736 11.6094 17.4214 12.2861C16.9693 12.9628 16.3266 13.4902 15.5747 13.8017C14.8228 14.1131 13.9954 14.1946 13.1972 14.0358C12.399 13.877 11.6658 13.4851 11.0903 12.9097C10.5149 12.3342 10.1229 11.601 9.96418 10.8028C9.8054 10.0046 9.88689 9.17719 10.1983 8.4253C10.5098 7.6734 11.0372 7.03074 11.7139 6.57859C12.3906 6.12644 13.1862 5.8851 14 5.8851C15.091 5.88623 16.137 6.32013 16.9084 7.09157C17.6799 7.86302 18.1138 8.90901 18.1149 10ZM16.8383 10C16.8383 9.43863 16.6718 8.88988 16.36 8.42312C16.0481 7.95637 15.6048 7.59258 15.0862 7.37775C14.5675 7.16293 13.9969 7.10672 13.4463 7.21624C12.8957 7.32575 12.39 7.59608 11.993 7.99302C11.5961 8.38996 11.3258 8.8957 11.2162 9.44627C11.1067 9.99685 11.1629 10.5675 11.3778 11.0862C11.5926 11.6048 11.9564 12.0481 12.4231 12.36C12.8899 12.6718 13.4386 12.8383 14 12.8383C14.7528 12.8383 15.4747 12.5393 16.007 12.007C16.5393 11.4747 16.8383 10.7528 16.8383 10ZM24 10C24 11.9778 23.4135 13.9112 22.3147 15.5557C21.2159 17.2002 19.6541 18.4819 17.8268 19.2388C15.9996 19.9957 13.9889 20.1937 12.0491 19.8078C10.1093 19.422 8.32746 18.4696 6.92894 17.0711C5.53041 15.6725 4.578 13.8907 4.19215 11.9509C3.8063 10.0111 4.00433 8.00042 4.76121 6.17316C5.51809 4.3459 6.79981 2.78412 8.4443 1.6853C10.0888 0.58649 12.0222 0 14 0C16.6515 0.0022537 19.1937 1.05655 21.0686 2.93142C22.9435 4.8063 23.9977 7.34852 24 10ZM22.7234 10C22.7234 8.27467 22.2118 6.58809 21.2532 5.15353C20.2947 3.71898 18.9323 2.60088 17.3383 1.94062C15.7443 1.28037 13.9903 1.10762 12.2982 1.44421C10.606 1.78081 9.05161 2.61163 7.83162 3.83162C6.61164 5.05161 5.78081 6.60597 5.44422 8.29815C5.10762 9.99032 5.28038 11.7443 5.94063 13.3383C6.60088 14.9323 7.71898 16.2947 9.15354 17.2532C10.5881 18.2118 12.2747 18.7234 14 18.7234C16.3126 18.72 18.5294 17.7999 20.1646 16.1646C21.7999 14.5294 22.72 12.3126 22.7234 10Z" fill="white"/>
</g>
<defs>
<filter id="filter0_d" x="0" y="0" width="28" height="28" filterUnits="userSpaceOnUse" color-interpolation-filters="sRGB">
<feFlood flood-opacity="0" result="BackgroundImageFix"/>
<feColorMatrix in="SourceAlpha" type="matrix" values="0 0 0 0 0 0 0 0 0 0 0 0 0 0 0 0 0 0 127 0"/>
<feOffset dy="4"/>
<feGaussianBlur stdDeviation="2"/>
<feColorMatrix type="matrix" values="0 0 0 0 0 0 0 0 0 0 0 0 0 0 0 0 0 0 0.25 0"/>
<feBlend mode="normal" in2="BackgroundImageFix" result="effect1_dropShadow"/>
<feBlend mode="normal" in="SourceGraphic" in2="effect1_dropShadow" result="shape"/>
</filter>
</defs>
</svg>
