<svg width="28" height="28" viewBox="0 0 28 28" fill="none" xmlns="http://www.w3.org/2000/svg">
  <g filter="url(#filter0_d)">
    <path
      d="M13.9978 0C8.51913 0 4.03577 4.45778 4.00023 9.93778C3.98245 12.6089 5.00887 15.1289 6.88397 17.0267C8.75908 18.9289 11.2651 19.9822 13.9356 20C13.9356 20 13.9978 20 14.0023 20C19.4809 20 23.9643 15.5422 23.9998 10.0622C24.0309 4.55111 19.5742 0.0355556 13.9978 0ZM21.8537 13.6089L17.8858 10L21.8581 6.39111C22.3736 7.50667 22.6579 8.74667 22.6491 10.0533C22.6402 11.32 22.3558 12.5244 21.8537 13.6089ZM14.0511 1.34667C17.0415 1.36444 19.672 2.90667 21.2138 5.23111L13.9978 11.7911L11.5006 9.52L6.79066 5.24C8.3414 2.89778 11.0119 1.34667 14.0511 1.34667ZM6.14193 6.39111L10.1099 10L6.13304 13.6133C5.60873 12.48 5.33768 11.2311 5.34657 9.94667C5.35546 8.68 5.63983 7.47556 6.14193 6.39111ZM13.9978 18.6533H13.94C11.6295 18.64 9.46557 17.7244 7.8393 16.08C7.4394 15.6756 7.08393 15.2356 6.77289 14.7689L11.0652 10.8711L13.5624 13.1378C13.6868 13.2489 13.8423 13.3067 13.9978 13.3067C14.1533 13.3067 14.3088 13.2489 14.4333 13.1378L16.9304 10.8711L21.2138 14.7644C19.6587 17.1022 17.0015 18.6533 13.9978 18.6533Z"
      fill="white" />
  </g>
  <defs>
    <filter id="filter0_d" x="0" y="0" width="28" height="28" filterUnits="userSpaceOnUse"
      color-interpolation-filters="sRGB">
      <feFlood flood-opacity="0" result="BackgroundImageFix" />
      <feColorMatrix in="SourceAlpha" type="matrix" values="0 0 0 0 0 0 0 0 0 0 0 0 0 0 0 0 0 0 127 0" />
      <feOffset dy="4" />
      <feGaussianBlur stdDeviation="2" />
      <feColorMatrix type="matrix" values="0 0 0 0 0 0 0 0 0 0 0 0 0 0 0 0 0 0 0.25 0" />
      <feBlend mode="normal" in2="BackgroundImageFix" result="effect1_dropShadow" />
      <feBlend mode="normal" in="SourceGraphic" in2="effect1_dropShadow" result="shape" />
    </filter>
  </defs>
</svg>